<?xml version="1.0" encoding="UTF-8" standalone="no"?>
<!DOCTYPE svg PUBLIC "-//W3C//DTD SVG 20010904//EN"
              "http://www.w3.org/TR/2001/REC-SVG-20010904/DTD/svg10.dtd">

<svg xmlns="http://www.w3.org/2000/svg"
     width="6.03125in" height="3.88542in"
     viewBox="0 0 579 373">
  <path id="枣庄"
        fill="none" stroke="black" stroke-width="1"
        d="M 186.52,329.96
           C 186.52,329.96 181.62,323.21 181.62,323.21
             181.62,323.21 175.18,317.79 175.18,317.79
             175.18,317.79 169.68,311.04 169.68,311.04
             169.68,311.04 164.10,305.72 164.10,305.72
             160.83,302.51 153.09,293.88 158.19,289.72
             162.86,285.91 170.80,287.74 176.00,286.61
             183.60,284.97 189.32,277.23 195.55,281.85
             195.55,281.85 204.04,290.26 204.04,290.26
             209.00,296.59 208.52,300.29 218.00,304.00
             217.03,309.21 215.11,311.42 216.23,317.00
             217.49,323.28 219.68,323.74 221.57,328.00
             223.82,333.03 224.51,343.70 223.00,349.00
             220.74,348.16 218.47,347.07 216.00,347.69
             212.50,348.56 209.53,352.70 206.00,353.05
             202.65,353.38 196.81,348.87 194.00,347.00
             196.85,336.63 192.07,336.87 186.52,329.96 Z" />
  <path id="济宁"
        fill="none" stroke="black" stroke-width="1"
        d="M 103.36,305.96
           C 101.74,301.88 106.46,295.64 108.36,292.00
             111.80,285.41 113.07,279.40 111.85,272.00
             110.92,266.36 108.58,264.73 107.32,260.00
             105.63,253.69 108.67,249.13 101.95,240.05
             97.89,234.57 89.57,232.42 88.06,226.96
             87.60,225.30 88.00,223.60 88.57,222.02
             90.58,216.44 94.86,216.68 100.00,216.00
             101.99,226.45 106.38,224.71 110.79,227.85
             110.79,227.85 116.21,233.31 116.21,233.31
             118.61,234.84 126.32,233.45 128.93,232.29
             134.69,229.71 135.54,223.49 144.00,221.00
             144.00,221.00 143.42,231.00 143.42,231.00
             142.98,233.36 141.34,235.52 142.24,237.89
             143.30,240.67 146.38,241.54 149.00,241.93
             161.64,243.83 159.61,238.69 168.00,234.74
             172.71,232.46 176.19,234.36 181.00,234.74
             181.00,234.74 192.00,234.74 192.00,234.74
             197.41,235.72 205.45,243.84 207.12,249.00
             209.78,257.24 199.29,259.92 197.82,265.02
             196.28,269.22 199.62,269.41 197.82,279.00
             184.10,277.18 189.21,279.98 179.00,283.55
             175.07,284.92 159.14,282.49 154.81,291.04
             152.63,295.34 159.97,304.54 163.10,307.34
             163.10,307.34 174.09,318.91 174.09,318.91
             174.09,318.91 180.37,324.51 180.37,324.51
             180.37,324.51 185.21,330.99 185.21,330.99
             187.48,333.60 191.83,336.66 192.51,340.02
             192.77,341.27 192.65,342.36 191.98,343.46
             191.98,343.46 188.06,347.30 188.06,347.30
             188.06,347.30 185.31,351.84 185.31,351.84
             185.31,351.84 183.78,353.26 183.78,353.26
             178.93,356.05 175.55,347.38 174.59,344.00
             171.65,333.64 170.13,329.44 164.39,320.00
             162.89,317.54 160.38,313.40 157.83,311.87
             154.36,310.19 151.48,312.58 145.00,311.87
             137.95,310.74 127.88,309.25 125.00,318.00
             120.14,317.09 105.18,310.54 103.36,305.96 Z" />
  <path id="菏泽"
        fill="none" stroke="black" stroke-width="1"
        d="M 64.00,236.65
           C 64.00,236.65 71.95,235.40 71.95,235.40
             76.74,233.49 76.36,228.11 80.20,226.84
             83.14,225.87 85.28,228.28 87.17,230.10
             91.61,234.40 98.68,238.39 101.18,243.02
             105.39,250.82 103.11,254.09 104.53,260.00
             105.92,265.80 109.36,267.04 109.91,276.00
             110.30,282.39 107.66,288.48 104.69,294.00
             102.88,297.38 99.38,302.00 100.64,306.00
             102.33,311.35 117.71,318.45 123.00,320.00
             122.63,321.81 118.02,334.49 117.15,335.57
             115.76,337.31 113.97,337.71 112.25,338.90
             110.50,340.11 109.19,342.23 106.87,342.30
             103.50,342.40 97.94,337.55 92.00,338.26
             88.37,338.69 86.08,340.98 83.00,341.54
             78.65,342.33 76.13,339.52 73.00,338.80
             70.70,338.26 61.87,339.86 57.21,336.74
             54.10,334.65 53.93,328.49 53.19,325.00
             51.52,317.05 48.11,313.76 40.00,313.00
             38.24,295.31 10.96,306.87 13.22,289.00
             14.13,281.88 18.64,279.64 22.79,274.96
             26.68,270.58 26.18,268.49 32.02,265.33
             38.84,261.63 51.01,262.62 48.00,251.00
             48.00,251.00 55.00,250.00 55.00,250.00
             55.36,243.89 57.70,238.65 64.00,236.65 Z" />
  <path id="泰安"
        fill="none" stroke="black" stroke-width="1"
        d="M 195.45,187.00
           C 197.03,191.89 196.69,197.69 201.49,202.69
             203.29,204.56 204.76,204.73 206.91,205.78
             209.46,207.03 211.22,208.68 214.04,209.44
             222.20,211.67 219.59,207.19 229.08,213.93
             230.47,214.92 232.45,216.13 233.57,217.38
             238.76,223.22 230.80,224.63 227.79,228.21
             223.81,232.94 224.61,237.10 222.41,239.49
             220.23,241.85 216.80,241.66 214.00,242.71
             211.88,243.50 209.93,244.84 208.00,246.00
             204.30,241.50 197.99,233.58 192.00,232.66
             192.00,232.66 182.00,232.66 182.00,232.66
             178.16,232.46 173.72,230.52 170.00,231.44
             165.29,232.61 162.83,237.07 159.00,238.98
             154.54,241.20 147.44,239.62 143.00,238.00
             145.14,232.21 146.10,230.39 145.52,224.00
             145.32,221.87 144.65,219.20 141.94,219.20
             138.23,219.20 134.16,226.04 130.91,228.57
             127.82,230.99 121.27,231.62 117.00,233.00
             115.67,230.29 114.31,227.45 111.82,225.59
             109.25,223.68 106.83,224.17 104.72,221.69
             101.12,217.44 103.04,206.46 105.60,203.76
             107.03,202.26 109.11,201.66 111.00,201.00
             114.76,211.19 117.13,206.85 126.00,208.26
             128.62,208.67 131.25,210.10 133.85,208.77
             138.70,206.30 136.14,199.94 136.31,197.00
             136.54,193.25 138.89,191.46 142.00,189.83
             145.53,188.00 151.11,186.35 155.00,187.74
             158.64,189.04 160.69,192.17 165.00,192.74
             175.26,194.07 185.13,180.94 189.00,173.00
             189.00,173.00 195.45,187.00 195.45,187.00 Z" />
  <path id="聊城"
        fill="none" stroke="black" stroke-width="1"
        d="M 103.00,134.57
           C 108.48,133.13 110.16,128.06 113.32,125.86
             116.79,123.44 121.39,124.81 124.94,126.39
             126.43,127.05 127.70,127.64 128.31,129.27
             129.34,132.02 126.06,146.32 126.00,151.00
             125.93,157.24 126.14,161.06 128.46,167.00
             129.71,170.18 132.80,174.67 131.86,178.00
             130.30,183.48 123.79,184.40 118.04,190.04
             114.31,193.70 111.89,197.37 107.00,199.84
             102.63,202.05 101.48,200.08 98.04,202.44
             94.48,204.88 92.71,209.88 88.91,211.40
             88.91,211.40 78.00,212.61 78.00,212.61
             72.30,214.08 68.93,217.38 66.00,218.10
             63.16,218.79 60.78,217.36 58.27,218.92
             55.11,220.88 55.88,224.41 51.00,229.00
             47.88,216.13 54.13,214.02 57.15,208.99
             58.67,206.46 62.07,193.90 61.75,191.00
             60.80,182.29 44.25,173.34 49.59,162.00
             52.36,156.13 55.08,155.11 58.74,150.91
             60.64,148.74 62.40,145.11 64.34,143.60
             67.26,141.32 70.22,142.56 73.91,140.55
             78.09,138.27 80.20,133.16 82.00,129.00
             89.42,130.39 96.17,136.36 103.00,134.57 Z" />
  <path id="济南"
        fill="none" stroke="black" stroke-width="1"
        d="M 188.00,77.00
           C 188.00,77.00 195.44,85.26 195.44,85.26
             196.95,88.80 194.70,94.18 195.44,99.00
             196.08,102.70 198.53,107.30 197.67,110.95
             196.51,115.84 189.64,116.63 190.88,122.00
             192.79,130.21 201.25,128.08 207.00,127.00
             208.94,141.63 210.14,136.26 213.89,145.00
             213.89,145.00 219.00,165.00 219.00,165.00
             206.94,165.11 208.23,168.22 200.00,169.67
             195.84,170.41 190.86,169.52 187.41,172.56
             185.07,174.63 180.78,185.97 170.00,190.01
             162.83,192.69 159.96,187.52 155.00,185.64
             151.30,184.25 146.52,185.46 143.00,186.95
             139.19,188.57 134.42,191.67 133.52,196.00
             132.88,199.09 135.25,205.10 132.40,206.85
             131.01,207.70 125.31,206.11 123.00,206.02
             121.21,205.95 117.86,206.16 116.31,205.40
             113.05,203.80 113.97,198.61 115.31,196.00
             118.52,189.77 123.05,188.75 127.99,185.32
             127.99,185.32 133.42,180.68 133.42,180.68
             136.69,178.07 138.53,177.87 141.35,173.98
             141.35,173.98 146.65,164.10 146.65,164.10
             148.69,161.45 150.68,160.64 152.51,158.63
             149.92,161.49 162.71,145.44 160.41,148.72
             162.49,145.75 161.58,143.67 163.02,141.21
             164.53,138.63 167.79,137.48 168.77,134.90
             170.55,130.17 162.65,124.68 164.78,119.22
             166.40,115.06 173.36,115.49 174.96,109.96
             175.92,106.63 173.50,103.85 172.55,100.00
             171.73,96.69 173.08,82.92 175.02,80.37
             177.03,77.73 179.64,80.12 181.91,79.87
             184.02,79.63 184.70,78.38 186.00,77.00
             186.00,77.00 188.00,77.00 188.00,77.00 Z" />
  <path id="德州"
        fill="none" stroke="black" stroke-width="1"
        d="M 206.23,49.00
           C 205.35,53.46 209.83,59.29 203.51,62.96
             200.06,64.96 197.87,59.45 194.64,61.74
             192.75,63.09 191.78,67.77 190.56,69.96
             188.46,73.76 184.50,76.57 181.00,79.00
             177.18,74.98 173.85,75.61 171.74,81.01
             170.94,83.04 169.91,94.48 170.04,97.00
             170.37,103.21 173.66,106.24 172.36,109.79
             170.82,113.98 163.33,114.17 162.42,120.02
             161.68,124.69 167.11,129.96 166.19,133.83
             165.59,136.36 162.61,137.91 161.02,141.01
             159.76,143.46 160.28,145.38 159.01,147.58
             159.01,147.58 150.50,158.05 150.50,158.05
             148.49,160.02 147.43,159.96 145.06,163.10
             140.78,168.77 142.40,173.70 135.00,176.00
             130.69,165.99 126.94,159.51 128.17,148.00
             128.93,140.93 134.53,129.73 126.97,124.92
             122.59,122.14 116.37,120.87 112.09,124.31
             109.17,126.65 107.02,130.85 103.00,132.22
             97.74,134.01 88.98,128.89 84.00,127.00
             84.00,127.00 93.75,107.00 93.75,107.00
             93.75,107.00 103.30,91.42 103.30,91.42
             103.30,91.42 118.09,86.11 118.09,86.11
             118.09,86.11 116.00,78.00 116.00,78.00
             121.63,73.37 120.78,71.16 122.53,70.17
             125.41,68.52 126.82,73.96 128.64,75.30
             130.94,76.97 133.17,75.25 135.00,73.77
             139.92,69.81 147.53,60.27 151.49,55.00
             153.86,51.84 156.10,46.94 160.02,45.64
             162.69,44.74 168.09,46.24 171.00,46.75
             177.91,47.95 178.05,47.97 185.00,48.00
             195.06,48.05 205.03,51.97 208.00,38.00
             211.14,42.90 207.14,44.39 206.23,49.00 Z" />
  <path id="滨州"
        fill="none" stroke="black" stroke-width="1"
        d="M 232.00,24.00
           C 234.91,24.72 242.37,24.96 242.37,28.98
             242.37,30.24 241.64,31.03 240.68,31.73
             240.68,31.73 238.00,33.00 238.00,33.00
             238.00,33.00 238.00,35.00 238.00,35.00
             241.17,35.77 249.55,39.38 251.70,35.60
             253.45,32.53 250.58,30.44 255.00,27.00
             255.00,30.31 254.72,39.32 255.51,42.00
             256.85,46.53 260.91,49.15 260.68,54.00
             260.33,61.33 253.02,62.49 250.17,68.02
             248.83,70.63 249.10,73.19 248.82,76.00
             248.85,78.27 248.09,82.01 248.82,84.00
             250.72,90.79 258.66,93.69 265.00,94.00
             265.00,106.52 266.36,104.68 260.82,116.00
             260.82,116.00 258.08,121.60 258.08,121.60
             252.93,128.11 246.44,118.03 246.07,113.00
             245.68,107.64 247.59,101.85 241.89,97.34
             238.24,94.66 233.06,96.05 229.00,97.34
             221.19,99.42 213.39,98.78 209.66,107.83
             206.28,116.00 224.26,118.15 225.44,119.02
             225.44,119.02 231.85,130.98 231.85,130.98
             232.19,132.04 232.26,132.70 231.85,133.74
             231.03,135.70 228.27,136.64 225.99,140.05
             222.50,145.28 224.43,147.14 218.00,151.00
             215.73,139.91 212.43,141.20 210.51,135.00
             209.69,132.38 210.02,127.82 207.77,125.87
             204.94,123.41 196.63,129.08 193.37,122.87
             190.13,116.70 201.11,117.63 200.57,109.00
             200.36,105.75 198.34,103.51 198.13,98.00
             197.85,94.52 199.02,87.27 198.13,85.04
             196.49,80.22 191.09,80.38 190.70,75.95
             190.70,75.95 195.00,63.00 195.00,63.00
             195.00,63.00 200.99,65.72 200.99,65.72
             205.15,66.45 209.13,59.55 209.35,56.00
             209.50,53.58 208.21,51.71 208.52,49.00
             208.88,45.73 211.37,43.37 211.35,40.00
             211.34,36.68 208.60,33.96 210.83,30.04
             213.17,25.92 217.42,25.10 221.00,22.93
             224.88,20.57 226.77,17.82 229.00,14.00
             233.49,17.08 233.78,18.98 232.00,24.00 Z" />
  <path id="临沂"
        fill="none" stroke="black" stroke-width="1"
        d="M 281.37,203.01
           C 282.78,202.14 292.64,199.11 294.00,199.43
             296.01,199.91 300.08,203.18 302.00,204.48
             304.18,205.96 308.66,208.21 308.97,211.08
             309.53,216.29 301.26,217.20 298.00,218.76
             290.78,222.22 288.80,226.42 289.02,234.00
             289.23,241.43 292.16,242.35 292.18,246.00
             292.18,246.00 292.18,248.00 292.18,248.00
             292.18,248.00 289.42,254.00 289.42,254.00
             289.42,254.00 287.77,261.00 287.77,261.00
             285.99,266.58 280.21,269.31 281.34,272.57
             282.33,275.46 288.59,274.93 291.00,275.04
             296.45,275.28 301.23,276.58 307.00,275.87
             307.00,275.87 317.00,273.00 317.00,273.00
             317.00,273.00 322.23,282.00 322.23,282.00
             322.23,282.00 322.23,289.00 322.23,289.00
             322.23,289.00 326.00,298.00 326.00,298.00
             320.94,300.15 317.51,301.86 312.00,302.91
             308.80,303.51 303.77,303.71 301.60,306.31
             298.95,309.48 301.14,313.45 297.59,320.00
             294.33,325.99 290.89,325.55 292.00,332.82
             289.21,332.97 281.82,332.04 280.00,332.82
             276.03,333.95 272.18,341.20 271.29,345.09
             270.55,348.37 271.52,352.00 268.35,355.77
             265.36,359.34 262.43,358.50 259.00,359.54
             259.00,359.54 253.00,362.00 253.00,362.00
             252.66,356.11 252.09,357.07 250.44,352.00
             248.52,346.12 247.56,340.37 241.00,337.86
             236.16,335.77 230.89,337.08 226.00,337.86
             226.00,337.86 224.27,329.00 224.27,329.00
             222.75,324.90 219.71,323.57 218.67,317.00
             217.12,309.85 220.51,307.60 218.67,304.26
             217.98,302.42 213.93,299.98 212.18,298.37
             208.10,294.63 207.87,292.25 205.37,289.13
             203.50,286.79 201.21,285.60 200.52,283.74
             199.02,280.88 200.95,277.78 200.52,274.00
             200.50,270.93 198.69,268.10 199.78,265.13
             200.94,261.98 204.31,261.26 207.35,256.98
             210.61,252.40 209.32,249.14 212.31,246.59
             215.32,244.03 219.88,245.49 223.43,241.70
             226.43,238.50 226.47,233.58 228.99,230.22
             232.77,225.19 236.61,228.50 238.00,220.00
             238.00,220.00 248.96,217.64 248.96,217.64
             248.96,217.64 258.01,223.56 258.01,223.56
             258.01,223.56 276.00,219.00 276.00,219.00
             276.00,213.02 275.45,206.70 281.37,203.01 Z" />
  <path id="莱芜"
        fill="none" stroke="black" stroke-width="1"
        d="M 224.09,172.93
           C 228.51,177.21 235.79,183.25 236.25,190.00
             236.47,193.19 234.57,195.39 233.10,198.00
             229.48,204.41 229.81,208.04 221.00,207.98
             212.78,207.93 203.61,203.57 199.98,196.00
             197.66,191.15 198.42,189.01 197.45,186.00
             196.42,182.83 191.54,176.98 194.01,173.74
             195.39,171.92 198.92,172.07 201.00,171.68
             207.26,170.49 207.61,168.34 215.99,167.65
             220.72,168.41 220.77,169.72 224.09,172.93 Z" />
  <path id="淄博"
        fill="none" stroke="black" stroke-width="1"
        d="M 224.00,101.63
           C 224.00,101.63 232.00,99.72 232.00,99.72
             235.32,99.00 239.35,97.20 241.91,100.43
             245.31,104.70 243.27,112.48 243.60,115.00
             244.05,118.45 249.68,125.31 253.04,126.28
             254.59,126.76 255.53,126.37 257.00,126.28
             260.02,126.05 271.42,128.28 271.39,132.21
             271.37,135.51 264.46,141.43 262.17,144.00
             256.28,150.61 251.69,157.89 252.04,167.00
             252.41,176.44 254.31,176.67 257.37,184.00
             258.71,187.21 258.69,189.83 260.72,193.00
             263.68,197.59 272.00,203.61 273.16,208.00
             273.86,209.83 273.10,214.71 273.16,217.00
             273.16,217.00 258.04,221.19 258.04,221.19
             258.04,221.19 248.00,214.64 248.00,214.64
             248.00,214.64 239.00,216.49 239.00,216.49
             239.00,216.49 228.00,211.00 228.00,211.00
             228.00,211.00 228.00,209.00 228.00,209.00
             231.91,206.03 232.28,205.47 234.19,201.00
             235.56,197.80 238.77,193.21 238.65,190.00
             238.50,186.22 233.66,178.88 230.90,176.37
             230.90,176.37 225.39,171.79 225.39,171.79
             223.32,169.48 220.31,160.20 219.68,157.04
             218.80,152.59 222.32,151.28 225.01,147.00
             226.71,144.30 227.15,141.83 229.41,139.37
             231.80,136.79 236.07,135.32 234.70,131.00
             234.24,129.58 227.93,118.40 226.86,117.60
             223.44,115.04 221.42,117.46 211.00,111.00
             215.01,102.21 215.87,103.20 224.00,101.63 Z" />
  <path id="东营"
        fill="none" stroke="black" stroke-width="1"
        d="M 299.59,26.11
           C 299.59,26.11 308.87,41.00 308.87,41.00
             308.87,41.00 311.23,50.00 311.23,50.00
             311.23,50.00 313.22,59.96 313.22,59.96
             313.22,59.96 308.11,68.04 308.11,68.04
             308.11,68.04 304.00,87.07 304.00,87.07
             304.00,87.07 301.02,87.07 301.02,87.07
             291.20,88.75 301.02,95.73 304.00,98.00
             296.76,99.94 292.16,101.15 287.72,108.00
             287.72,108.00 284.15,115.96 284.15,115.96
             284.15,115.96 279.02,122.17 279.02,122.17
             279.02,122.17 277.00,130.00 277.00,130.00
             274.91,129.30 263.91,125.43 262.99,124.27
             260.37,120.91 263.98,115.03 265.51,112.00
             267.94,107.18 268.86,101.29 267.28,96.02
             264.73,87.49 254.57,93.74 251.32,84.98
             250.46,82.65 252.20,69.51 253.74,67.46
             256.49,63.79 262.10,61.45 263.26,55.00
             264.13,50.14 259.90,47.70 258.51,43.00
             257.74,40.37 258.00,32.19 258.00,29.00
             258.00,29.00 271.69,27.62 271.69,27.62
             271.69,27.62 277.75,36.31 277.75,36.31
             277.75,36.31 282.30,33.57 282.30,33.57
             282.30,33.57 289.00,32.00 289.00,32.00
             289.00,32.00 289.00,27.00 289.00,27.00
             293.10,26.32 293.23,26.07 296.00,23.00
             296.00,23.00 299.59,26.11 299.59,26.11 Z" />
  <path id="日照"
        fill="none" stroke="black" stroke-width="1"
        d="M 289.69,263.00
           C 291.01,260.30 291.06,256.96 291.99,254.00
             292.76,251.55 294.74,248.36 294.64,246.00
             294.45,241.86 291.85,243.66 292.00,232.00
             292.14,221.45 295.84,222.29 304.00,219.17
             308.81,217.33 309.53,215.73 315.00,217.72
             320.46,219.70 321.65,222.36 326.00,225.19
             332.33,229.31 340.82,231.97 344.70,239.01
             347.08,243.32 347.00,249.21 347.00,254.00
             348.84,254.06 351.70,253.86 352.89,255.60
             354.90,258.54 350.56,271.24 348.49,273.90
             346.63,276.29 344.26,277.50 342.00,279.37
             340.14,280.92 338.12,282.81 337.02,285.00
             335.63,287.77 336.00,292.83 336.00,296.00
             333.54,295.67 328.35,295.85 326.70,294.36
             323.37,291.36 325.28,286.74 324.74,283.01
             324.33,280.22 319.87,274.13 317.63,272.52
             314.17,270.04 312.16,273.23 307.00,273.87
             298.96,274.87 291.35,272.01 283.00,272.00
             284.95,269.26 288.39,265.64 289.69,263.00 Z" />
  <path id="潍坊"
        fill="none" stroke="black" stroke-width="1"
        d="M 280.99,122.46
           C 280.99,122.46 286.26,116.83 286.26,116.83
             288.40,113.74 287.61,111.28 289.74,108.04
             294.85,100.24 303.16,100.14 311.00,103.00
             311.00,103.00 310.00,109.00 310.00,109.00
             319.86,109.55 318.48,112.93 323.09,115.05
             323.09,115.05 337.00,116.55 337.00,116.55
             342.31,116.37 345.79,112.59 348.81,116.55
             356.61,125.18 347.36,135.11 348.81,144.00
             349.74,152.12 356.84,161.57 364.00,165.33
             364.00,165.33 380.00,171.00 380.00,171.00
             380.00,171.00 369.77,187.00 369.77,187.00
             369.77,187.00 366.15,194.58 366.15,194.58
             363.28,198.12 357.31,197.50 355.52,202.11
             354.26,205.34 357.56,215.97 357.58,220.00
             357.61,225.90 351.47,233.63 347.00,237.00
             336.64,226.87 336.95,229.51 327.00,223.04
             327.00,223.04 320.00,217.55 320.00,217.55
             320.00,217.55 314.29,214.57 314.29,214.57
             311.09,212.28 312.84,210.15 308.85,206.53
             307.01,204.85 294.91,196.87 293.00,196.69
             291.13,196.51 281.86,199.60 280.17,200.72
             280.17,200.72 275.00,205.00 275.00,205.00
             272.03,202.11 265.87,196.87 263.72,193.96
             260.54,189.66 261.44,188.17 259.86,184.00
             259.86,184.00 256.30,177.00 256.30,177.00
             254.10,170.71 253.20,162.17 256.30,156.00
             261.09,145.55 271.60,138.96 274.00,132.00
             281.80,129.63 278.35,126.80 280.99,122.46 Z" />
  <path id="青岛"
        fill="none" stroke="black" stroke-width="1"
        d="M 350.90,239.00
           C 353.14,234.02 359.58,227.27 360.50,222.00
             361.34,217.14 356.58,205.71 358.35,202.48
             359.75,199.93 364.49,199.86 367.69,196.61
             367.69,196.61 377.20,179.00 377.20,179.00
             378.13,177.48 381.16,173.71 381.47,172.44
             382.38,168.62 376.64,167.10 374.00,166.37
             364.09,163.65 357.18,160.39 353.12,150.00
             350.24,142.64 351.64,139.13 353.80,132.00
             354.67,129.15 355.07,126.06 358.14,124.74
             361.94,123.11 365.33,125.54 369.00,125.61
             369.00,125.61 381.00,123.29 381.00,123.29
             381.00,123.29 390.98,122.69 390.98,122.69
             396.14,121.34 395.28,117.24 399.14,115.60
             399.14,115.60 416.00,114.00 416.00,114.00
             418.92,122.84 421.06,120.20 421.47,132.00
             421.65,137.09 419.11,139.02 418.95,143.00
             418.90,144.31 422.30,155.69 423.01,156.89
             423.77,158.18 424.70,159.10 426.06,159.87
             428.28,160.79 431.57,160.17 434.00,159.87
             434.00,159.87 433.00,166.00 433.00,166.00
             433.00,166.00 442.00,164.00 442.00,164.00
             442.00,164.00 447.00,168.00 447.00,168.00
             447.00,168.00 442.00,176.00 442.00,176.00
             440.13,174.82 437.31,172.59 435.02,172.91
             430.34,173.55 429.77,179.32 428.54,182.72
             427.38,185.90 426.19,186.17 426.80,190.00
             427.41,193.77 431.00,200.37 428.96,203.70
             426.97,206.96 422.96,205.87 420.58,206.35
             412.11,208.07 414.88,210.99 402.00,211.00
             406.99,202.81 407.22,201.61 408.00,192.00
             401.72,191.89 402.59,193.29 399.00,198.00
             395.86,195.10 389.67,194.51 387.75,199.15
             386.21,202.86 389.02,205.95 389.02,209.00
             389.02,209.00 387.00,217.00 387.00,217.00
             389.79,217.49 392.54,218.26 391.34,221.96
             389.58,227.43 382.83,224.41 381.93,231.02
             381.93,231.02 381.93,239.00 381.93,239.00
             381.93,239.00 375.00,238.00 375.00,238.00
             375.00,238.00 374.00,239.00 374.00,239.00
             374.00,239.00 374.00,250.00 374.00,250.00
             374.00,250.00 371.00,247.00 371.00,247.00
             367.12,249.58 366.54,250.70 362.00,249.00
             357.53,253.86 355.84,252.30 350.00,251.00
             349.85,246.88 349.13,242.90 350.90,239.00 Z" />
  <path id="烟台"
        fill="none" stroke="black" stroke-width="1"
        d="M 411.00,58.73
           C 414.16,57.54 416.05,58.42 422.00,55.68
             428.29,52.77 431.42,49.89 438.95,51.15
             443.36,51.88 443.27,54.92 446.22,57.78
             449.41,60.87 451.87,60.89 456.00,61.00
             456.39,63.14 456.98,67.16 458.01,68.94
             459.69,71.88 465.61,74.90 469.00,74.55
             470.50,74.40 471.69,73.63 473.00,73.00
             473.00,73.00 485.02,84.77 485.02,84.77
             485.02,84.77 503.00,88.00 503.00,88.00
             504.60,83.42 506.53,84.06 511.00,84.00
             509.90,91.85 507.06,91.16 504.43,97.00
             502.17,101.99 504.56,107.54 497.98,109.58
             490.20,112.00 481.86,110.13 474.00,111.30
             470.72,111.79 466.70,112.95 465.04,116.11
             462.05,121.78 469.64,126.99 472.49,131.00
             470.97,128.86 481.02,145.85 479.86,143.13
             479.86,143.13 479.86,144.87 479.86,144.87
             479.86,144.87 476.00,152.25 476.00,152.25
             473.11,152.00 467.57,151.79 465.00,152.25
             458.07,154.39 460.59,156.96 451.00,156.00
             451.00,156.00 450.00,162.00 450.00,162.00
             445.22,159.57 443.94,157.22 438.00,156.75
             432.07,156.66 427.77,160.31 425.02,156.75
             424.10,155.30 423.83,152.59 423.37,151.00
             422.54,148.13 421.20,146.15 421.29,143.00
             421.29,143.00 423.75,133.00 423.75,133.00
             424.29,127.65 422.44,122.51 419.81,118.00
             418.99,116.59 417.70,113.83 416.46,112.91
             414.10,111.16 398.54,112.83 396.30,114.60
             393.61,116.71 393.97,119.59 389.94,120.69
             389.94,120.69 379.00,121.30 379.00,121.30
             379.00,121.30 369.00,123.24 369.00,123.24
             363.30,123.61 365.74,121.08 355.00,123.24
             355.00,123.24 353.00,117.00 353.00,117.00
             353.00,117.00 362.87,114.94 362.87,114.94
             362.87,114.94 367.68,109.21 367.68,109.21
             367.68,109.21 374.26,100.98 374.26,100.98
             374.26,100.98 371.00,93.00 371.00,93.00
             380.24,89.35 384.86,86.45 392.42,80.20
             395.48,77.69 398.97,75.66 400.83,72.00
             402.21,69.26 401.99,65.99 402.00,63.00
             407.04,61.57 407.27,60.13 411.00,58.73 Z" />
  <path id="威海"
        fill="none" stroke="black" stroke-width="1"
        d="M 520.60,79.34
           C 522.61,76.84 525.04,76.41 528.00,76.00
             528.00,76.00 528.00,85.00 528.00,85.00
             540.94,85.01 536.62,86.59 543.00,88.43
             545.30,89.09 546.83,88.66 549.00,88.96
             549.00,88.96 554.00,89.93 554.00,89.93
             554.00,89.93 565.00,87.00 565.00,87.00
             562.31,91.37 554.70,93.60 557.03,100.00
             557.03,100.00 560.00,105.00 560.00,105.00
             560.00,105.00 555.57,108.86 555.57,108.86
             551.43,111.58 548.36,110.14 550.00,118.00
             545.46,120.55 545.61,121.14 547.00,126.00
             547.00,126.00 557.00,122.00 557.00,122.00
             557.00,122.00 553.00,129.00 553.00,129.00
             553.00,129.00 548.00,128.00 548.00,128.00
             548.00,128.00 549.00,135.00 549.00,135.00
             549.00,135.00 543.00,138.00 543.00,138.00
             543.00,138.00 534.00,136.00 534.00,136.00
             534.00,136.00 538.00,131.00 538.00,131.00
             538.00,131.00 532.00,129.00 532.00,129.00
             532.00,129.00 536.00,120.00 536.00,120.00
             527.57,119.29 528.80,127.72 523.00,132.00
             522.75,123.70 513.83,120.34 513.00,131.00
             502.50,131.27 504.84,134.54 500.51,138.09
             496.64,141.25 493.87,139.70 494.00,147.00
             494.00,147.00 487.00,147.00 487.00,147.00
             487.00,147.00 494.00,140.00 494.00,140.00
             489.27,138.65 483.81,137.61 479.00,139.00
             477.34,135.80 476.03,132.12 473.78,129.32
             471.42,126.40 465.76,122.53 466.81,118.11
             467.83,113.83 473.61,114.02 477.00,114.00
             482.18,113.97 495.64,113.37 499.98,111.35
             507.77,107.74 504.80,101.87 507.17,97.00
             508.86,93.54 510.97,92.65 514.00,86.00
             520.19,87.72 517.67,82.98 520.60,79.34 Z" />
</svg>
